solid OpenSCAD_Model
  facet normal 0.471404 0.816496 0.333334
    outer loop
      vertex -0.5 0.866025 0
      vertex 0 0 1.41421
      vertex 1 0 0
    endloop
  endfacet
  facet normal -0.942809 0 0.333334
    outer loop
      vertex -0.5 -0.866025 0
      vertex 0 0 1.41421
      vertex -0.5 0.866025 0
    endloop
  endfacet
  facet normal 0.471404 -0.816496 0.333334
    outer loop
      vertex 1 0 0
      vertex 0 0 1.41421
      vertex -0.5 -0.866025 0
    endloop
  endfacet
  facet normal 0 0 -1
    outer loop
      vertex -0.5 -0.866025 0
      vertex -0.5 0.866025 0
      vertex 1 0 0
    endloop
  endfacet
endsolid OpenSCAD_Model
